<mxfile host="app.diagrams.net" modified="2021-10-02T08:30:23.104Z" agent="5.0 (Windows NT 10.0; Win64; x64) AppleWebKit/537.36 (KHTML, like Gecko) Chrome/87.0.4280.88 Safari/537.36" etag="_2oCvxSi-R91-nAkdVED" version="15.4.1" type="github">
  <diagram id="C5RBs43oDa-KdzZeNtuy" name="Page-1">
    <mxGraphModel dx="1422" dy="794" grid="1" gridSize="10" guides="1" tooltips="1" connect="1" arrows="1" fold="1" page="1" pageScale="1" pageWidth="827" pageHeight="1169" math="0" shadow="0">
      <root>
        <mxCell id="WIyWlLk6GJQsqaUBKTNV-0" />
        <mxCell id="WIyWlLk6GJQsqaUBKTNV-1" parent="WIyWlLk6GJQsqaUBKTNV-0" />
        <mxCell id="nbA89J5CZCey9lPILQJf-19" style="edgeStyle=orthogonalEdgeStyle;rounded=0;orthogonalLoop=1;jettySize=auto;html=1;exitX=1;exitY=0.75;exitDx=0;exitDy=0;entryX=0;entryY=0.75;entryDx=0;entryDy=0;shape=flexArrow;" parent="WIyWlLk6GJQsqaUBKTNV-1" source="nbA89J5CZCey9lPILQJf-3" target="nbA89J5CZCey9lPILQJf-12" edge="1">
          <mxGeometry relative="1" as="geometry" />
        </mxCell>
        <mxCell id="nbA89J5CZCey9lPILQJf-3" value="set_dielectric" style="rounded=0;whiteSpace=wrap;html=1;" parent="WIyWlLk6GJQsqaUBKTNV-1" vertex="1">
          <mxGeometry x="240" y="170" width="110" height="50" as="geometry" />
        </mxCell>
        <mxCell id="nbA89J5CZCey9lPILQJf-7" style="edgeStyle=orthogonalEdgeStyle;rounded=0;orthogonalLoop=1;jettySize=auto;html=1;entryX=0;entryY=0.5;entryDx=0;entryDy=0;shape=flexArrow;strokeWidth=1;" parent="WIyWlLk6GJQsqaUBKTNV-1" source="nbA89J5CZCey9lPILQJf-4" target="nbA89J5CZCey9lPILQJf-3" edge="1">
          <mxGeometry relative="1" as="geometry" />
        </mxCell>
        <mxCell id="nbA89J5CZCey9lPILQJf-9" style="edgeStyle=orthogonalEdgeStyle;rounded=0;orthogonalLoop=1;jettySize=auto;html=1;entryX=0;entryY=0.5;entryDx=0;entryDy=0;shape=flexArrow;" parent="WIyWlLk6GJQsqaUBKTNV-1" source="nbA89J5CZCey9lPILQJf-4" target="nbA89J5CZCey9lPILQJf-8" edge="1">
          <mxGeometry relative="1" as="geometry" />
        </mxCell>
        <mxCell id="nbA89J5CZCey9lPILQJf-21" style="edgeStyle=orthogonalEdgeStyle;rounded=0;orthogonalLoop=1;jettySize=auto;html=1;entryX=0;entryY=0.5;entryDx=0;entryDy=0;shape=flexArrow;" parent="WIyWlLk6GJQsqaUBKTNV-1" source="nbA89J5CZCey9lPILQJf-4" target="nbA89J5CZCey9lPILQJf-20" edge="1">
          <mxGeometry relative="1" as="geometry" />
        </mxCell>
        <mxCell id="nbA89J5CZCey9lPILQJf-4" value="init" style="rounded=0;whiteSpace=wrap;html=1;" parent="WIyWlLk6GJQsqaUBKTNV-1" vertex="1">
          <mxGeometry x="140" y="80" width="110" height="50" as="geometry" />
        </mxCell>
        <mxCell id="nbA89J5CZCey9lPILQJf-6" value="int dielectric_set[]" style="text;html=1;strokeColor=none;fillColor=none;align=center;verticalAlign=middle;whiteSpace=wrap;rounded=0;" parent="WIyWlLk6GJQsqaUBKTNV-1" vertex="1">
          <mxGeometry x="205" y="140" width="100" height="30" as="geometry" />
        </mxCell>
        <mxCell id="nbA89J5CZCey9lPILQJf-8" value="set_GENE" style="rounded=0;whiteSpace=wrap;html=1;" parent="WIyWlLk6GJQsqaUBKTNV-1" vertex="1">
          <mxGeometry x="240" y="250" width="110" height="50" as="geometry" />
        </mxCell>
        <mxCell id="nbA89J5CZCey9lPILQJf-10" value="&amp;nbsp;struct GENE curr_generation" style="text;html=1;strokeColor=none;fillColor=none;align=center;verticalAlign=middle;whiteSpace=wrap;rounded=0;" parent="WIyWlLk6GJQsqaUBKTNV-1" vertex="1">
          <mxGeometry x="200" y="220" width="170" height="30" as="geometry" />
        </mxCell>
        <mxCell id="nbA89J5CZCey9lPILQJf-16" style="edgeStyle=orthogonalEdgeStyle;rounded=0;orthogonalLoop=1;jettySize=auto;html=1;exitX=0;exitY=0.25;exitDx=0;exitDy=0;entryX=1;entryY=0.25;entryDx=0;entryDy=0;" parent="WIyWlLk6GJQsqaUBKTNV-1" source="nbA89J5CZCey9lPILQJf-12" target="nbA89J5CZCey9lPILQJf-3" edge="1">
          <mxGeometry relative="1" as="geometry" />
        </mxCell>
        <mxCell id="nbA89J5CZCey9lPILQJf-12" value="get_rand_num" style="rounded=0;whiteSpace=wrap;html=1;" parent="WIyWlLk6GJQsqaUBKTNV-1" vertex="1">
          <mxGeometry x="500" y="170" width="110" height="50" as="geometry" />
        </mxCell>
        <mxCell id="nbA89J5CZCey9lPILQJf-15" value="random number % max" style="text;html=1;strokeColor=none;fillColor=none;align=center;verticalAlign=middle;whiteSpace=wrap;rounded=0;" parent="WIyWlLk6GJQsqaUBKTNV-1" vertex="1">
          <mxGeometry x="360" y="150" width="130" height="30" as="geometry" />
        </mxCell>
        <mxCell id="nbA89J5CZCey9lPILQJf-18" value="max" style="text;html=1;strokeColor=none;fillColor=none;align=center;verticalAlign=middle;whiteSpace=wrap;rounded=0;" parent="WIyWlLk6GJQsqaUBKTNV-1" vertex="1">
          <mxGeometry x="360" y="200" width="130" height="30" as="geometry" />
        </mxCell>
        <mxCell id="nbA89J5CZCey9lPILQJf-20" value="set_target_value" style="rounded=0;whiteSpace=wrap;html=1;" parent="WIyWlLk6GJQsqaUBKTNV-1" vertex="1">
          <mxGeometry x="240" y="330" width="110" height="50" as="geometry" />
        </mxCell>
        <mxCell id="nbA89J5CZCey9lPILQJf-24" value="" style="shape=flexArrow;endArrow=classic;html=1;rounded=0;strokeWidth=1;edgeStyle=orthogonalEdgeStyle;width=13.714285714285714;endSize=3.8628571428571425;" parent="WIyWlLk6GJQsqaUBKTNV-1" edge="1">
          <mxGeometry width="50" height="50" relative="1" as="geometry">
            <mxPoint x="620" y="34.71" as="sourcePoint" />
            <mxPoint x="650" y="34.71" as="targetPoint" />
            <Array as="points">
              <mxPoint x="630" y="35" />
              <mxPoint x="630" y="35" />
            </Array>
          </mxGeometry>
        </mxCell>
        <mxCell id="nbA89J5CZCey9lPILQJf-25" value=": call" style="text;html=1;strokeColor=none;fillColor=none;align=center;verticalAlign=middle;whiteSpace=wrap;rounded=0;" parent="WIyWlLk6GJQsqaUBKTNV-1" vertex="1">
          <mxGeometry x="640" y="20" width="60" height="30" as="geometry" />
        </mxCell>
        <mxCell id="nbA89J5CZCey9lPILQJf-27" value="" style="endArrow=classic;html=1;rounded=0;strokeWidth=1;edgeStyle=orthogonalEdgeStyle;" parent="WIyWlLk6GJQsqaUBKTNV-1" edge="1">
          <mxGeometry width="50" height="50" relative="1" as="geometry">
            <mxPoint x="710" y="40" as="sourcePoint" />
            <mxPoint x="740" y="40" as="targetPoint" />
          </mxGeometry>
        </mxCell>
        <mxCell id="nbA89J5CZCey9lPILQJf-28" value=": ret" style="text;html=1;strokeColor=none;fillColor=none;align=center;verticalAlign=middle;whiteSpace=wrap;rounded=0;" parent="WIyWlLk6GJQsqaUBKTNV-1" vertex="1">
          <mxGeometry x="730" y="20" width="60" height="30" as="geometry" />
        </mxCell>
        <mxCell id="nbA89J5CZCey9lPILQJf-29" value="int &amp;amp;target_value" style="text;html=1;strokeColor=none;fillColor=none;align=center;verticalAlign=middle;whiteSpace=wrap;rounded=0;" parent="WIyWlLk6GJQsqaUBKTNV-1" vertex="1">
          <mxGeometry x="200" y="300" width="110" height="30" as="geometry" />
        </mxCell>
      </root>
    </mxGraphModel>
  </diagram>
</mxfile>
